<?xml version="1.0" encoding="UTF-8"?>
<svg xmlns="http://www.w3.org/2000/svg" viewBox="0 0 346 100" width="346" height="100" overflow="visible">
  <defs>
    <mask id="q-knockout-mask" maskUnits="userSpaceOnUse" x="0" y="0" width="100" height="100">
      <rect x="0" y="0" width="100" height="100" fill="white"/>
      <g stroke="black" stroke-width="9" fill="none" stroke-linecap="round">
        <circle cx="50" cy="50" r="30"/>
        <line x1="80" y1="50" x2="80" y2="95"/>
      </g>
      <rect x="10" y="45.5" width="80" height="9" fill="white"/>
    </mask>
  </defs>
  <g>
    <circle cx="50" cy="50" r="50" fill="#2dd4a8" mask="url(#q-knockout-mask)"/>
  </g>
  <path d="M135.555 78.175L135.555 78.175Q128.885 78.175 123.767 75.185Q118.650 72.195 115.718 66.790Q112.785 61.385 112.785 54.370L112.785 54.370L112.785 22.975L120.950 22.975L120.950 54.025Q120.950 61.500 124.918 65.985Q128.885 70.470 135.555 70.470L135.555 70.470Q142.340 70.470 146.308 66.043Q150.275 61.615 150.275 54.025L150.275 54.025L150.275 22.975L158.325 22.975L158.325 54.370Q158.325 61.500 155.450 66.848Q152.575 72.195 147.458 75.185Q142.340 78.175 135.555 78.175Z" fill="#2dd4a8"/>
  <path d="M205.120 78.175L205.120 78.175Q196.955 78.175 190.515 74.495Q184.075 70.815 180.338 64.433Q176.600 58.050 176.600 49.885L176.600 49.885Q176.600 41.950 180.280 35.625Q183.960 29.300 190.227 25.563Q196.495 21.825 204.430 21.825L204.430 21.825Q211.790 21.825 217.483 25.218Q223.175 28.610 226.452 34.475Q229.730 40.340 229.730 48.045L229.730 48.045Q229.730 49.770 229.155 52.990L229.155 52.990L184.880 52.990Q185.800 61.040 191.320 65.813Q196.840 70.585 205.235 70.585L205.235 70.585Q210.065 70.585 214.205 68.803Q218.345 67.020 221.335 63.455L221.335 63.455L226.510 68.745Q222.715 73.230 217.080 75.703Q211.445 78.175 205.120 78.175ZM204.200 29.300L204.200 29.300Q196.265 29.300 191.090 33.900Q185.915 38.500 184.880 46.090L184.880 46.090L221.795 46.090Q221.220 38.385 216.563 33.843Q211.905 29.300 204.200 29.300Z" fill="#2dd4a8"/>
  <path d="M254.215 77.025L246.165 77.025L246.165-4.395L254.215-4.395L254.215 32.060Q257.320 27.345 262.553 24.585Q267.785 21.825 274.110 21.825L274.110 21.825Q281.585 21.825 287.565 25.563Q293.545 29.300 297.053 35.683Q300.560 42.065 300.560 50.115L300.560 50.115Q300.560 58.050 297.053 64.375Q293.545 70.700 287.565 74.438Q281.585 78.175 274.110 78.175L274.110 78.175Q267.555 78.175 262.380 75.415Q257.205 72.655 254.215 67.940L254.215 67.940L254.215 77.025ZM272.730 70.470L272.730 70.470Q278.365 70.470 282.793 67.883Q287.220 65.295 289.692 60.638Q292.165 55.980 292.165 50L292.165 50Q292.165 44.020 289.692 39.363Q287.220 34.705 282.850 32.060Q278.480 29.415 272.845 29.415L272.845 29.415Q267.210 29.415 262.897 32.060Q258.585 34.705 256.170 39.363Q253.755 44.020 253.755 50L253.755 50Q253.755 56.095 256.170 60.695Q258.585 65.295 262.840 67.883Q267.095 70.470 272.730 70.470Z" fill="#2dd4a8"/>
  <path d="M316.190 11.245L316.190 11.245Q313.775 11.245 312.223 9.635Q310.670 8.025 310.670 5.610L310.670 5.610Q310.670 3.195 312.223 1.585Q313.775-0.025 316.190-0.025L316.190-0.025Q318.605-0.025 320.215 1.585Q321.825 3.195 321.825 5.610L321.825 5.610Q321.825 8.025 320.215 9.635Q318.605 11.245 316.190 11.245ZM320.330 77.025L312.165 77.025L312.165 22.975L320.330 22.975L320.330 77.025Z" fill="#2dd4a8"/>
</svg>
